<svg xmlns="http://www.w3.org/2000/svg" id="Layer_1" viewBox="0 0 186 186" width="186" height="186"><style>.st0{fill:#b4fff4}</style><path d="M130.7 136.7l-13.4-22.1c2.5-8.5 4.5-18.1 4.5-27.4 0-1.2-.1-2.4-.1-3.7-1.3-24.6-10.8-33.5-18-40.6-3.4-3.4-5.9-6.2-7.8-10.3 0-.1-.1-.1-.1-.2 1.1-.1 2.1-.5 3-1 1.3-.8 2-2.2 2-3.7l-.4-.9c-.6-.6-2.3-1-5-1.1-.2-1.6-.2-3.2.1-4.8.1-.8.1-.8 1.3-1h.2c.6-.1 1.2-.4 1.5-1 .4-1-.1-2-.5-2.7l-.1-.2-.1-.4c-1.9-4.7-2.9-8-2.9-9.9s-.5-2.9-1-3.2c-.4-.2-.9-.2-1.2 0-.2.1-1 .6-1 3.2 0 1.2-.5 3.9-2.9 10v.3l-.1.2c-.4.6-.7 1.3-.7 2 0 .3.1.5.2.7.3.6.8.9 1.5 1h.2c1.2.1 1.2.1 1.3 1 .1 1 .2 1.9.2 2.9 0 .6-.1 1.2-.1 1.8-2.8.1-4.5.5-5 1.1l-.4.9c-.1 1.5.7 3 2 3.7.9.5 1.9.9 3 1l-.1.2c-1.8 4.2-4.7 7.1-8.1 10.5-7.5 7.2-17 16-18.3 40.5-.1 1.2-.1 2.4-.1 3.7 0 9.4 2 18.9 4.5 27.4l-13.5 22.1-8.1 46.9h9.1l8.6-29.8 14.3-12.1.6.2 1.5.5c.3 1.5.5 3 .7 3.9.2 1 .4 2.6 7.2 3.1v34.1h7.5v-34c7.1-.4 7.5-2.3 7.6-3 .1-.7.4-2.6.7-4l1.6-.5.3-.1 14.3 11.9 8.6 29.8h9.1l-8.2-46.9z" class="st0"/></svg>